<svg width="500" height="500" xmlns="http://www.w3.org/2000/svg"><rect x="112" y="8" width="8" height="8" style="fill:#0e4036" /><rect x="120" y="8" width="8" height="8" style="fill:#0e4036" /><rect x="128" y="8" width="8" height="8" style="fill:#0e4036" /><rect x="104" y="16" width="8" height="8" style="fill:#0e4036" /><rect x="112" y="16" width="8" height="8" style="fill:#a4fdef" /><rect x="120" y="16" width="8" height="8" style="fill:#a4fdef" /><rect x="128" y="16" width="8" height="8" style="fill:#09231f" /><rect x="96" y="24" width="8" height="8" style="fill:#0e4036" /><rect x="104" y="24" width="8" height="8" style="fill:#a4fdef" /><rect x="112" y="24" width="8" height="8" style="fill:#2cc6ab" /><rect x="120" y="24" width="8" height="8" style="fill:#a4fdef" /><rect x="128" y="24" width="8" height="8" style="fill:#09231f" /><rect x="88" y="32" width="8" height="8" style="fill:#0e4036" /><rect x="96" y="32" width="8" height="8" style="fill:#a4fdef" /><rect x="104" y="32" width="8" height="8" style="fill:#2cc6ab" /><rect x="112" y="32" width="8" height="8" style="fill:#a4fdef" /><rect x="120" y="32" width="8" height="8" style="fill:#09231f" /><rect x="80" y="40" width="8" height="8" style="fill:#0e4036" /><rect x="88" y="40" width="8" height="8" style="fill:#a4fdef" /><rect x="96" y="40" width="8" height="8" style="fill:#2cc6ab" /><rect x="104" y="40" width="8" height="8" style="fill:#33eccb" /><rect x="112" y="40" width="8" height="8" style="fill:#09231f" /><rect x="72" y="48" width="8" height="8" style="fill:#0e4036" /><rect x="80" y="48" width="8" height="8" style="fill:#a4fdef" /><rect x="88" y="48" width="8" height="8" style="fill:#2cc6ab" /><rect x="96" y="48" width="8" height="8" style="fill:#33eccb" /><rect x="104" y="48" width="8" height="8" style="fill:#09231f" /><rect x="24" y="56" width="8" height="8" style="fill:#0e4036" /><rect x="32" y="56" width="8" height="8" style="fill:#0e4036" /><rect x="64" y="56" width="8" height="8" style="fill:#0e4036" /><rect x="72" y="56" width="8" height="8" style="fill:#33eccb" /><rect x="80" y="56" width="8" height="8" style="fill:#2cc6ab" /><rect x="88" y="56" width="8" height="8" style="fill:#33eccb" /><rect x="96" y="56" width="8" height="8" style="fill:#09231f" /><rect x="24" y="64" width="8" height="8" style="fill:#0e4036" /><rect x="32" y="64" width="8" height="8" style="fill:#166357" /><rect x="40" y="64" width="8" height="8" style="fill:#0e4036" /><rect x="56" y="64" width="8" height="8" style="fill:#0e4036" /><rect x="64" y="64" width="8" height="8" style="fill:#33eccb" /><rect x="72" y="64" width="8" height="8" style="fill:#2cc6ab" /><rect x="80" y="64" width="8" height="8" style="fill:#33eccb" /><rect x="88" y="64" width="8" height="8" style="fill:#09231f" /><rect x="32" y="72" width="8" height="8" style="fill:#0e4036" /><rect x="40" y="72" width="8" height="8" style="fill:#2cc6ab" /><rect x="48" y="72" width="8" height="8" style="fill:#0e4036" /><rect x="56" y="72" width="8" height="8" style="fill:#33eccb" /><rect x="64" y="72" width="8" height="8" style="fill:#166357" /><rect x="72" y="72" width="8" height="8" style="fill:#33eccb" /><rect x="80" y="72" width="8" height="8" style="fill:#09231f" /><rect x="32" y="80" width="8" height="8" style="fill:#0e4036" /><rect x="40" y="80" width="8" height="8" style="fill:#2cc6ab" /><rect x="48" y="80" width="8" height="8" style="fill:#2cc6ab" /><rect x="56" y="80" width="8" height="8" style="fill:#166357" /><rect x="64" y="80" width="8" height="8" style="fill:#33eccb" /><rect x="72" y="80" width="8" height="8" style="fill:#09231f" /><rect x="40" y="88" width="8" height="8" style="fill:#0e4036" /><rect x="48" y="88" width="8" height="8" style="fill:#166357" /><rect x="56" y="88" width="8" height="8" style="fill:#0e4036" /><rect x="64" y="88" width="8" height="8" style="fill:#09231f" /><rect x="32" y="96" width="8" height="8" style="fill:#493616" /><rect x="40" y="96" width="8" height="8" style="fill:#684e1c" /><rect x="48" y="96" width="8" height="8" style="fill:#09231f" /><rect x="56" y="96" width="8" height="8" style="fill:#0e4036" /><rect x="64" y="96" width="8" height="8" style="fill:#0e4036" /><rect x="72" y="96" width="8" height="8" style="fill:#09231f" /><rect x="24" y="104" width="8" height="8" style="fill:#493616" /><rect x="32" y="104" width="8" height="8" style="fill:#8a6727" /><rect x="40" y="104" width="8" height="8" style="fill:#261e0a" /><rect x="56" y="104" width="8" height="8" style="fill:#09231f" /><rect x="64" y="104" width="8" height="8" style="fill:#09231f" /><rect x="72" y="104" width="8" height="8" style="fill:#0e4036" /><rect x="80" y="104" width="8" height="8" style="fill:#09231f" /><rect x="8" y="112" width="8" height="8" style="fill:#0e4036" /><rect x="16" y="112" width="8" height="8" style="fill:#0e4036" /><rect x="24" y="112" width="8" height="8" style="fill:#684e1c" /><rect x="32" y="112" width="8" height="8" style="fill:#261e0a" /><rect x="72" y="112" width="8" height="8" style="fill:#09231f" /><rect x="80" y="112" width="8" height="8" style="fill:#09231f" /><rect x="8" y="120" width="8" height="8" style="fill:#0e4036" /><rect x="16" y="120" width="8" height="8" style="fill:#166357" /><rect x="24" y="120" width="8" height="8" style="fill:#09231f" /><rect x="8" y="128" width="8" height="8" style="fill:#09231f" /><rect x="16" y="128" width="8" height="8" style="fill:#09231f" /><rect x="24" y="128" width="8" height="8" style="fill:#09231f" /></svg>
